<?xml version="1.0" ?>
<svg style="enable-background:new 0 0 512 512;" version="1.1" viewBox="0 0 512 512" xml:space="preserve" xmlns="http://www.w3.org/2000/svg" xmlns:xlink="http://www.w3.org/1999/xlink"><style type="text/css">
                                                                                                                                                                                           .st0 {
                                                                                                                                                                                               display: none;
                                                                                                                                                                                               fill: #FEFEFE;
                                                                                                                                                                                           }

                                                                                                                                                                                           .st1 {
                                                                                                                                                                                               fill: #BA0000;
                                                                                                                                                                                           }

                                                                                                                                                                                           .st2 {
                                                                                                                                                                                               fill: #FFFFFF;
                                                                                                                                                                                           }
</style><g id="Layer_1" /><g id="Layer_2"><g><path class="st0" d="M512.4,512.4c-170.7,0-341.3,0-512,0c0-170.7,0-341.3,0-512c170.7,0,341.3,0,512,0    C512.4,171.1,512.4,341.8,512.4,512.4z" /><path class="st1" d="M258,131.4c26.1-0.1,53.7,0.5,81.3,1.4c13.6,0.5,27.1,1.1,40.7,2.1c5.5,0.4,10.9,0.9,16.2,2.5    c13.3,4,23.1,12,28.5,25c3.7,8.8,6,17.9,7,27.4c1.6,14.9,2.8,29.7,3.1,44.7c0.3,15.4,0.3,30.7,0,46.1c-0.3,15.8-1.5,31.5-3.5,47.2    c-1,8.2-3.4,16.1-6.7,23.7c-5.9,13.4-16.4,21.3-30.3,25c-4.9,1.3-9.9,1.7-15,2c-18.8,1.3-37.6,2-56.5,2.6    c-28.3,0.8-56.6,1.3-84.9,0.9c-24-0.4-48.1-0.8-72.1-1.7c-9.7-0.4-19.5-0.7-29.2-1.7c-6.4-0.6-12.7-1.3-18.9-2.9    c-8.2-2.2-15.4-6-21.4-12.2c-2.9-2.9-5-6.4-6.8-10c-4.4-9.5-7-19.5-8.1-29.9c-2.3-21.1-3.4-42.2-3.1-63.4c0.1-7.6,0-15.2,0-22.8    c0.2-17.2,1.5-34.4,3.5-51.5c1-8.5,3.4-16.7,6.9-24.6c5.8-13,16-20.5,29.4-24.1c6.6-1.8,13.5-2.1,20.3-2.5c24-1.5,48-2.2,72-2.7    C226,131.5,241.3,131.3,258,131.4z" /><path class="st2" d="M219.9,302.5c0-33.8,0-67.5,0-101.2c1.8,0.3,87,44.5,97.6,50.6C316.5,253,222.1,301.9,219.9,302.5z" /></g></g></svg>